<?xml version="1.0" encoding="utf-8"?>
<!-- Generator: Adobe Illustrator 25.2.1, SVG Export Plug-In . SVG Version: 6.00 Build 0)  -->
<svg version="1.1" id="Слой_1" xmlns="http://www.w3.org/2000/svg" xmlns:xlink="http://www.w3.org/1999/xlink" x="0px" y="0px"
	 viewBox="0 0 808.61 149.98" enable-background="new 0 0 808.61 149.98" xml:space="preserve">
<g>
	<g>
		<path d="M392.31,63.31c-43-4.97-61.59,52.34-23.91,73.57l0.23-0.33c-23.77-20.13-7.7-58.83,23.05-56.31
			c26.82,4.86,35.28,39.69,13.89,56.52l0.22,0.34c2.46-1.31,4.77-2.89,6.89-4.67l0.12,0.01l0.02-0.12
			C438.75,110.85,425.75,67.18,392.31,63.31z"/>
		<path d="M529.14,29.57l-0.01-0.09l-0.09,0.01c-1.59-1.35-3.34-2.53-5.2-3.53l-0.17,0.26c16.15,12.55,9.68,39.14-10.49,42.67
			c-23.13,2.02-35.36-27.48-17.4-42.51l-0.17-0.25c-28.46,16.03-14.39,59.3,18.05,55.54C538.92,78.74,548.72,45.76,529.14,29.57z"/>
		<path d="M584.19,82.1c-27.04-3.12-38.72,32.91-15.03,46.25l0.14-0.21c-14.97-12.46-4.73-37.13,14.49-35.4
			c16.75,2.85,22.18,25.18,8.73,35.54l0.14,0.21c1.55-0.83,3-1.81,4.33-2.94l0.07,0.01l0.01-0.08
			C613.39,111.99,605.22,84.53,584.19,82.1z"/>
	</g>
	<path d="M278.95,72.41c-9.44-5.06-20.26-13.32-31.52-9.05c-10.88,4.15-10.95,19.03,0,23.26c13.09,4.63,25.02-6.07,36.01-11.62
		C281.94,74.13,280.45,73.26,278.95,72.41z"/>
	<path d="M295.07,67.62c-11.07,0.28-11.07,16.5,0,16.78C306.14,84.12,306.14,67.9,295.07,67.62z"/>
	<g>
		<path d="M173.45,0C118.34,20.9,55.91,22.36,0,3.6c29.23,17.28,54.49,41.34,72.62,70.1c-2.96,0.05-5.91,0.01-8.87,0.07
			c0.2-1.59-0.63-2.83-1.41-4.14c-2-3.32-4.13-6.58-6.35-9.75c-8.86-12.69-19.48-24.14-31.67-33.67c-2.32-1.8-4.73-3.48-7.19-5.06
			c-2.16-1.4-4.57-3.37-7.27-3.34c-0.1,0-0.21,0.11-0.17,0.22c0.86,2.15,2.94,3.58,4.69,4.99C31.93,37.46,47.73,54.23,59.26,73.9
			c-1.02,0.04-2.04,0.08-3.06,0.14c-3.14,0.2-3.14,4.68,0,4.87c2.08,0.13,4.16,0.22,6.24,0.28c-3.9,6.94-9.24,12.82-14.69,18.55
			c-1.69,1.97-4.26,3.34-4.96,6c-0.03,0.13,0.06,0.25,0.19,0.25c2.81,0.18,4.96-2.08,7.11-3.55c4.76-3.34,8.65-7.81,12.24-12.35
			c1.9-2.76,4.78-5.42,5.44-8.79c0.96,0.01,1.91,0.02,2.87,0.02C52.69,106.76,28.19,129.71,0,146.38
			c55.91-18.76,118.34-17.31,173.45,3.6c11.79-28.46,31.52-53.56,56.24-71.89c1.42-1.05,2.84-2.09,4.28-3.1
			C207.27,56.38,185.91,30.11,173.45,0z M145.07,14.1c12.76,18.33,23.39,38.19,30.62,59.35c-8.32-0.01-16.64-0.02-24.96-0.03
			c-5.94-19.64-15.06-38.4-27.26-54.92C130.73,17.34,137.94,15.87,145.07,14.1z M118.69,19.21c11.39,16.69,21.02,34.75,26.75,54.2
			c-1.81,0-3.62-0.01-5.43-0.01c-6.03-19-14.69-37.29-26.26-53.53C115.4,19.66,117.05,19.45,118.69,19.21z M73.68,21.76
			c11.81,0.35,23.66-0.12,35.42-1.36c10.46,16.65,19.61,34.22,25.65,52.99c-10.34-0.01-20.69-0.03-31.04-0.04
			C101,62.09,96.48,51.31,90.7,41.29c-1.36-2.1-5.2-9.14-7.7-8.78c0.22,3.85,3.18,7.1,4.73,10.52c5.2,9.5,9.01,19.74,11.34,30.32
			h-4.3c-5.19-18.79-13.98-36.61-26.25-51.8C70.24,21.64,71.96,21.71,73.68,21.76z M36.21,24.16c-3.17-2.79-6.43-5.5-9.78-8.1
			c12.35,2.67,24.9,4.39,37.51,5.22c11.03,16,20.84,33.17,26.04,52.07c-4.06,0-8.13-0.01-12.19-0.01
			C66.54,54.94,52.42,38.38,36.21,24.16z M73.68,128.22c-15.89,0.46-31.72,2.34-47.25,5.7c19.5-15.23,36.48-33.69,49.69-54.61
			c1.99-0.01,3.97-0.03,5.96-0.04c-1.56,5.15-4.63,9.63-7.65,14.01c-2.26,5.23,2.86,3.17,4.56,0.38c3.44-4.31,6.07-9.2,7.87-14.42
			c1.45-0.02,2.89,0,4.34-0.02c-4.14,10.7-10.16,20.66-17.46,29.5c-2.25,3.28-6.33,5.75-7.27,9.71c1.39,3.99,9.17-5.56,10.58-6.99
			c8.24-9.48,14.99-20.41,19.32-32.22c9.1,0,18.21,0,27.32-0.01c-7.24,17.67-17.32,33.96-28.61,49.27
			C87.95,128.11,80.81,128.01,73.68,128.22z M178.64,128.75c-2.73,4.88-5.25,9.9-7.45,15.06c-22.84-8.3-46.84-13.32-71.08-15.02
			c11.82-15.03,21.6-31.73,28.51-49.58h5.22c-1.56,3.62-3.18,7.18-4.72,10.82c-0.68,1.47-2.56,5.27,0.08,5.75
			c1.71-0.19,2.56-2.23,3.25-3.61c2.12-4.28,4.08-8.64,6.12-12.96c1.96,0,3.93-0.01,5.89-0.01c-3.08,11.61-7.91,22.65-13.36,33.33
			c-1.02,2-2.07,3.98-3.17,5.95c-1.01,1.8-2.38,3.78-2.16,5.94c2.6,5.1,14.02-19.56,15.07-22.01c3.35-7.55,6.01-15.27,8.3-23.21
			h10.64c-0.78,3.03-1.58,6.04-2.59,9.01c-0.41,1.2-3.95,9.4-1.49,9.61c3.81-0.07,7.42-15.12,8.38-18.62h4.58
			c-0.42,3.27-2.04,6.26-2.19,9.55c0,0.55,0.62,0.89,1.1,0.62c3.35-2.1,4.38-6.5,4.99-10.17c7.29,0.01,14.59,0,21.88,0.02
			c-7.91,8.5-14.97,17.87-20.41,28.16c-0.49,0.96-4.99,9.98-2.51,10.07c0.83,0.03,1.29-0.74,1.83-1.27c2.12-2.26,3.4-5.16,5.07-7.74
			c6.24-10.71,14.13-20.31,22.68-29.21c5.63-0.06,13.53,0.19,19.16-0.12C203.45,92.91,189.28,109.78,178.64,128.75z M202.43,73.47
			c0.38-2.82-1.73-5.38-2.74-7.91c-0.46-0.91-2.89-6.63-4.42-5.14c-1,1.21,0.02,2.93,0.35,4.25c1.16,2.94,2.05,6.1,3.71,8.8h-7.91
			c-2.96-6.92-6.02-13.71-9.38-20.43c-0.83-1.44-3.78-8.56-5.78-5.75c-0.65,2.54,1.33,5,2.16,7.31c2.82,6.26,5.76,12.45,8.25,18.86
			h-6.17c-6.94-21.64-17.93-42.03-31.26-60.44c6.94-1.83,13.8-3.94,20.56-6.34c0.47-0.17,0.92-0.33,1.39-0.51
			c11.41,26.38,29.73,49.58,52.3,67.31C216.97,73.48,208.89,73.48,202.43,73.47z"/>
		<path d="M161.75,19.12c-2.65,0.1,0.92,5.15,1.62,6.17c2.4,3.62,4.72,7.29,6.71,11.16c0.97,1.83,1.88,4.01,3.64,5.21
			c4.89,0.8-2.55-11.12-3.51-12.73C167.8,25.49,165.82,20.8,161.75,19.12z"/>
		<path d="M70.78,100.69c-2.56,1.01-4.01,4.02-5.94,5.88c-3.75,4.39-7.87,8.46-12.19,12.29c-1.25,1.4-7.18,4.93-4.73,6.85
			c4.23,1.22,19.84-16,22.63-19.88C71.72,104.58,74.1,100.61,70.78,100.69z"/>
		<path d="M127.19,100.9c0.18-0.77-0.83-1.49-1.41-0.82c-1.65,1.47-2.75,3.51-3.74,5.5c-0.96,1.93-2.15,3.94-2.23,6.14
			c1.47,4.08,6.73-7.68,7.02-9.11C127.12,101.97,127.06,101.49,127.19,100.9z"/>
	</g>
	<g>
		<path d="M247.51,91.22c0.11-0.19,0.21-0.39,0.31-0.6c-2.79-0.86-5.35-2.27-7.82-3.8c-18.18,8.74-33.72,23.64-42.38,41.92
			c11.02-2.8,22.84-2.06,33.52,1.77C232.93,116.14,239.17,102.92,247.51,91.22z M240.56,95.71c-5.88,8.86-10.25,18.9-12.08,29.44
			c-7.76-2.12-15.94-2.61-23.9-1.46c8.4-13.96,20.52-25.71,34.82-33.52c1.1,0.91,2.32,1.7,3.59,2.36
			C242.14,93.56,241.31,94.61,240.56,95.71z"/>
		<path d="M263.59,123.75c-2.94-10.43-1.89-21.38,1.25-31.62c-2.98,0.58-6.09,0.45-9.08,0.01c-5.3,9.5-9.18,19.93-10.25,30.81
			c7.09-1.01,13.78,2.53,19.7,6.03C264.59,127.26,264.03,125.53,263.59,123.75z M259.26,99.92c-1.53,7.06-1.67,14.44-0.29,21.54
			c-3.02-1.29-6.25-2.14-9.55-2.16c1.64-8.08,4.14-16.07,8.21-23.28c0.86,0.13,1.72,0.22,2.59,0.25
			C259.84,97.47,259.52,98.68,259.26,99.92z"/>
		<path d="M198.18,25.69c9.18,16.37,23.47,29.88,40.44,37.95c2.47-1.53,5.03-2.94,7.82-3.8c-1.6-2.89-3.65-5.52-5.35-8.36
			c-6.05-9.52-9.72-20.39-11.33-31.53c-10.68,3.83-22.5,4.57-33.52,1.77C196.81,23.07,197.46,24.41,198.18,25.69z M204.31,26.92
			c7.61,0.94,15.39,0.41,22.79-1.61c2.16,11.78,7.11,23.22,14.51,32.62c-1.27,0.66-2.49,1.45-3.59,2.36
			c-14.3-7.81-26.42-19.56-34.82-33.52C203.57,26.83,203.94,26.87,204.31,26.92z"/>
		<path d="M244.57,30.94c1.43,9.66,5.09,18.88,9.81,27.38c2.99-0.44,6.1-0.57,9.08,0.01c-3.81-11.98-4.18-25.01,0.37-36.85
			c-5.91,3.5-12.61,7.04-19.7,6.03C244.28,28.66,244.41,29.79,244.57,30.94z M254.11,30.25c1.18-0.35,2.34-0.77,3.48-1.25
			c-1.59,8.32-1.2,17.07,1.25,25.19c-0.87,0.03-1.73,0.12-2.59,0.25c-4.07-7.21-6.57-15.2-8.21-23.28
			C250.08,31.13,252.16,30.83,254.11,30.25z"/>
	</g>
	<g>
		<path d="M806.6,64.74c-35.26-8.53-69.21-20.24-101.84-35.18c-7.19,4.87-14.43,9.56-21.82,14.14c-3-1.71-5.98-3.47-8.9-5.34l0,0
			c-1.66-1.05-3.33-2.13-5.02-3.27c-13.83,8.93-27.8,17.86-41.66,26.87c-16.67-7.55-36.63-7.51-53.25,0.02
			c8.01-11.2,12.85-24.63,13.64-38.37c0.1-1.61-1.83-2.54-3.12-1.79c-16.98,9.8-27.95,29.79-26.24,49.43
			c-6.47,4.65-12.58,9.8-18.94,14.59c-50.23,40.73-80.39-10.29-121.04-34.05c-23.76-13.97-53.53-9.17-76.12,4.61
			c5.39-10.27,7.49-22.19,5.74-33.66c-0.59-3.9-1.64-7.73-3.06-11.41c-0.59-1.52-2.3-1.67-3.26-0.43
			c-8.79,11.36-11.39,26.63-9.4,40.63c-5.31-6.18-13.27-10.02-21.58-9.8c-1.22,0.03-2.38,1.26-1.93,2.53
			c1.87,5.33,5.25,10.05,9.69,13.54c3.65,2.83,7.87,4.93,12.43,5.82c-5.91,4.11-11.6,8.55-17.08,13.05
			c-2.58,2.09-5.13,4.17-7.01,6.94c-0.83,1.07,0.17,2.6,1.49,1.93c1.36-0.69,2.77-1.27,3.97-2.21c5.47-4.3,10.86-8.73,16.49-12.81
			c-2,5.55-1.72,12.68,1.58,17.71c3.45,4.6,7.75-9.76,8.1-12.12c0.67-3.98,0.82-8.17-0.29-12.1c35.86-23.25,66.46-21.78,98.66,6.58
			c0.66,6.71-2.34,13.15-1.97,19.88c0.26,7.78,3.19,16.02,8.55,21.77c1.23,1.31,3.13,0.49,3.69-0.97
			c4.18-10.6,4.01-22.57-0.95-32.93c13.52,11.23,28.33,22.78,45.44,26.52c-5.04,7.69-5.99,17.84-2.53,26.28
			c0.5,1.08,2.19,1.21,2.95,0.38c3.53-3.67,6.5-7.78,7.77-12.81c5.55,8.29,14.24,14.53,24.02,16.67c1.64,0.36,3.81,1.02,5.17-0.34
			c1.46-1.46,0.5-3.75-0.06-5.4c-3.49-10.39-11.36-19.33-21.42-23.76c31.86-3.26,49.66-36.88,80.48-43.31
			c12.44-2.55,29.05-1.8,39.51,5.99c13.81,8.98,27.73,17.87,41.51,26.77c1.69-1.14,3.36-2.22,5.02-3.27l0,0
			c2.91-1.87,5.9-3.63,8.9-5.34c7.39,4.58,14.64,9.27,21.82,14.14c33.2-15.2,67.95-27.14,103.85-35.66L806.6,64.74z M327.47,58.47
			c-5.81-2.48-10.82-6.94-13.65-12.61c8.29,0.88,15.93,6.46,19.04,14.27C331.04,59.63,329.21,59.21,327.47,58.47z M334.79,75.53
			c-0.43,2.67-1.23,5.25-2.44,7.64c-1.83-5.41-0.71-11.61,2.39-16.35C335.3,69.68,335.24,72.65,334.79,75.53z M337.47,55.42
			c-0.26,0.46-0.54,0.91-0.83,1.36c-5.04-13.71-2.45-29.3,5.92-41.14C346.19,28.85,344.27,43.55,337.47,55.42z M444.39,106.13
			c-6.04-8.7-6.22-18.75-4.07-28.82C445.71,85.71,447.23,96.5,444.39,106.13z M494.91,121.62c-0.8,1.66-1.85,3.49-3.13,5.02
			c-1.64-6.83-0.41-13.67,2.41-20.09c0.11,0.06,0.22,0.12,0.35,0.16c0.44,2.75,1.58,5,2.64,7.38
			C496.43,116.6,496.07,119.19,494.91,121.62z M514.78,115.5c4.8,4.18,8.31,9.71,10.19,15.78c-12.06-2.99-22.38-12.08-26.56-23.81
			C504.42,108.71,510.16,111.46,514.78,115.5z M561.98,68.74c-0.29-16.04,8.13-31.92,21.23-41.09
			c-1.75,14.24-7.88,27.94-17.43,38.67C564.49,67.09,563.23,67.91,561.98,68.74z M646.12,65.67c10.71,5.67,21.25,11.61,31.59,17.87
			c-2.96,1.77-5.79,3.54-8.56,5.43c-7.92-5.23-29.78-18.59-37.14-23.85c7.47-4.74,29.35-18.68,37.14-23.64
			c2.77,1.89,5.6,3.66,8.56,5.43c-10.6,6.43-21.44,12.49-32.42,18.32L646.12,65.67z M739.22,80.59
			c-11.35,4.32-22.73,9.06-33.82,14.13c-5.6-3.74-11.3-7.4-17.03-10.96c15.27-8.14,31.69-14.43,48.54-18.52
			c-16.8-4.14-33.26-10.38-48.54-18.54c5.74-3.56,11.44-7.22,17.03-10.96c25.97,11.87,53.07,21.83,80.46,29.49
			C770.26,69.59,754.58,74.75,739.22,80.59z"/>
		<path d="M419.49,46.27c15.85-2.48,30.08-12.07,39.08-25.24c1.01-1.48-0.37-3.17-1.89-3.29c-8.95-0.74-18.3,1.85-25.62,7.03
			c-3.4,2.41-6.33,5.33-8.84,8.65c-2.42,3.2-4.68,7.06-5.46,11.03C416.44,46.04,418.37,47.26,419.49,46.27z M425.54,36.03
			c6.32-8.38,16.5-13.55,26.91-13.94c-7.53,9.77-18.45,16.59-30.41,19.57C423.08,39.72,424.18,37.82,425.54,36.03z"/>
		<path d="M434.19,47.82c-0.39,0.12-0.69,0.32-0.91,0.56c-1.4-0.03-0.89,1.29-0.36,2.04c3.5,4.62,9.83,6.48,15.33,7.42
			c6.63,0.84,13.41-0.63,19.19-3.94c1.23-0.71,1.4-2.84,0-3.5C457.08,45.55,445.19,44.55,434.19,47.82z M461.4,52.28
			c-7.27,2.77-15.83,2.27-22.69-1.47C446.25,49.27,454.14,49.76,461.4,52.28z"/>
		<path d="M610.89,70.65c-0.39-0.49-1.03-0.17-1.22,0.35c-2.51,1.94,1.79,12.34,3.25,14.74c2.7,4.82,6.7,8.96,11.42,11.82
			c2.86,1.47,9.15,5.8,11.2,1.46c0.69-6.09-4.53-14.11-8.48-18.54C622.74,75.82,617.1,72.12,610.89,70.65z M625.18,93.29
			c-6.08-4.22-10.73-10.65-12.45-17.88c9.39,3.4,17.06,11.58,19.25,21.41C629.56,96.09,627.16,94.65,625.18,93.29z"/>
		<path d="M585.45,52.92c0.43,0.4,1.03,0.62,1.78,0.43c10.01-2.53,22.37-6.86,24.6-18.45c0.23-1.2-0.57-2.86-2.04-2.68
			c-10.83,1.28-22.21,8.37-25.2,19.31C584.4,52.29,584.87,52.8,585.45,52.92z M596.52,41.75c3.06-2.17,6.52-3.84,10.17-4.73
			c-2.95,6.49-10.26,9.56-17.08,11.58C591.65,46.05,593.87,43.64,596.52,41.75z"/>
	</g>
</g>
</svg>
